<?xml version="1.0" encoding="UTF-8" standalone="no"?>
<svg width="11px" height="11px" viewBox="0 0 11 11" version="1.1" xmlns="http://www.w3.org/2000/svg" xmlns:xlink="http://www.w3.org/1999/xlink">
    <!-- Generator: Sketch 3.8.3 (29802) - http://www.bohemiancoding.com/sketch -->
    <title>clock</title>
    <desc>Created with Sketch.</desc>
    <defs></defs>
    <g id="carstar-web-post" stroke="none" stroke-width="1" fill="none" fill-rule="evenodd">
        <g id="post-desktop" transform="translate(-589.000000, -814.000000)" fill="#BDBDBD">
            <g id="clock" transform="translate(589.000000, 814.000000)">
                <path d="M5.5,0 C2.475,0 0,2.475 0,5.5 C0,8.525 2.475,11 5.5,11 C8.525,11 11,8.525 11,5.5 C11,2.475 8.525,0 5.5,0 L5.5,0 Z M5.5,9.9 C3.08,9.9 1.1,7.92 1.1,5.5 C1.1,3.08 3.08,1.1 5.5,1.1 C7.92,1.1 9.9,3.08 9.9,5.5 C9.9,7.92 7.92,9.9 5.5,9.9 L5.5,9.9 Z" id="Shape"></path>
                <polygon id="Shape" points="5.825 3 5 3 5 6.3 7.86 8.06 8.3 7.345 5.825 5.86"></polygon>
            </g>
        </g>
    </g>
</svg>