<?xml version="1.0" encoding="UTF-8" standalone="no"?>
<svg width="26px" height="26px" viewBox="0 0 26 26" version="1.1" xmlns="http://www.w3.org/2000/svg" xmlns:xlink="http://www.w3.org/1999/xlink">
    <!-- Generator: Sketch 39 (31667) - http://www.bohemiancoding.com/sketch -->
    <title>Facebook</title>
    <desc>Created with Sketch.</desc>
    <defs></defs>
    <g id="carstar-web-post" stroke="none" stroke-width="1" fill="none" fill-rule="evenodd">
        <g id="profile-desktop" transform="translate(-713.000000, -1263.000000)" fill="#CECECE">
            <g id="Social-icon" transform="translate(641.000000, 1263.000000)">
                <path d="M85.8874424,26 L73.4350004,26 C72.6422394,26 72,25.3573621 72,24.5649098 L72,1.43498927 C72,0.642335257 72.6423402,-1.24344979e-14 73.4350004,-1.24344979e-14 L96.5651005,-1.24344979e-14 C97.3575589,-1.24344979e-14 98,0.642335257 98,1.43498927 L98,24.5649098 C98,25.357463 97.357458,26 96.5651005,26 L89.9396237,26 L89.9396237,15.9313671 L93.319199,15.9313671 L93.8252424,12.0074422 L89.9396237,12.0074422 L89.9396237,9.50226409 C89.9396237,8.36619729 90.2550938,7.59200525 91.8841986,7.59200525 L93.9620436,7.59109728 L93.9620436,4.08150738 C93.6026882,4.03368785 92.3692578,3.92685056 90.9342573,3.92685056 C87.9384519,3.92685056 85.8874424,5.75549339 85.8874424,9.11365479 L85.8874424,12.0074422 L82.499191,12.0074422 L82.499191,15.9313671 L85.8874424,15.9313671 L85.8874424,26 L85.8874424,26 Z" id="Facebook"></path>
            </g>
        </g>
    </g>
</svg>