<?xml version="1.0" encoding="UTF-8" standalone="no"?>
<svg width="15px" height="26px" viewBox="0 0 15 26" version="1.1" xmlns="http://www.w3.org/2000/svg" xmlns:xlink="http://www.w3.org/1999/xlink">
    <!-- Generator: Sketch 39 (31667) - http://www.bohemiancoding.com/sketch -->
    <title>Tumblr</title>
    <desc>Created with Sketch.</desc>
    <defs></defs>
    <g id="carstar-web-post" stroke="none" stroke-width="1" fill="none" fill-rule="evenodd">
        <g id="profile-desktop" transform="translate(-784.000000, -1263.000000)" fill="#CECECE">
            <g id="Social-icon" transform="translate(641.000000, 1263.000000)">
                <path d="M156.235743,20.7678996 C155.768412,20.9984803 154.874675,21.1990986 154.208229,21.2163596 C152.19614,21.2720507 151.805622,19.7542236 151.78941,18.6539171 L151.78941,10.5599793 L156.836552,10.5599793 L156.836552,6.62317134 L151.806882,6.62317134 L151.806882,0 L148.126316,0 C148.065716,0 147.959941,0.0548769144 147.944987,0.194104694 C147.72966,2.2211309 146.812942,5.77884848 143,7.20141443 L143,10.5598165 L145.54364,10.5598165 L145.54364,19.0546651 C145.54364,21.9634672 147.617588,26.0958455 153.092553,25.9983046 C154.93984,25.9655739 156.991437,25.1657062 157.444444,24.4751038 L156.235743,20.7678996" id="Tumblr"></path>
            </g>
        </g>
    </g>
</svg>