<?xml version="1.0" encoding="UTF-8" standalone="no"?>
<svg width="31px" height="26px" viewBox="0 0 31 26" version="1.1" xmlns="http://www.w3.org/2000/svg" xmlns:xlink="http://www.w3.org/1999/xlink">
    <!-- Generator: Sketch 39 (31667) - http://www.bohemiancoding.com/sketch -->
    <title>Twitter</title>
    <desc>Created with Sketch.</desc>
    <defs></defs>
    <g id="carstar-web-post" stroke="none" stroke-width="1" fill="none" fill-rule="evenodd">
        <g id="profile-desktop" transform="translate(-641.000000, -1263.000000)" fill="#CECECE">
            <g id="Social-icon" transform="translate(641.000000, 1263.000000)">
                <path d="M30.7272727,3.07793427 C29.5982434,3.6 28.3826431,3.95305164 27.1075253,4.11079812 C28.4096965,3.29953052 29.4088695,2.01314554 29.8795989,0.480751174 C28.6603916,1.23192488 27.3131313,1.77840376 25.8738894,2.0713615 C24.7268245,0.796244131 23.0873873,0 21.2730047,0 C17.7939351,0 14.9713618,2.93896714 14.9713618,6.56338028 C14.9713618,7.07793427 15.0254686,7.57746479 15.1336823,8.05821596 C9.89433692,7.78403756 5.25016675,5.17370892 2.13902362,1.19812207 C1.59615169,2.17089202 1.28593916,3.29953052 1.28593916,4.50140845 C1.28593916,6.77746479 2.39873644,8.78685446 4.09047688,9.96431925 C3.05883985,9.93239437 2.08491679,9.63380282 1.23363588,9.14553991 L1.23363588,9.22629108 C1.23363588,12.4075117 3.40692717,15.0610329 6.29262514,15.6619718 C5.7641817,15.8159624 5.20688128,15.8929577 4.63154525,15.8929577 C4.22574397,15.8929577 3.8289605,15.8535211 3.44480196,15.7765258 C4.2473867,18.3830986 6.57398069,20.2816901 9.33342938,20.3323944 C7.17637015,22.0938967 4.45659981,23.143662 1.50417007,23.143662 C0.995565801,23.143662 0.492372217,23.113615 0,23.0535211 C2.79010923,24.9126761 6.10505477,26 9.66348109,26 C21.2603798,26 27.5998975,16 27.5998975,7.3258216 C27.5998975,7.04037559 27.5944869,6.75492958 27.5836655,6.47511737 C28.8154978,5.54929577 29.8850096,4.3943662 30.7272727,3.07793427" id="Twitter"></path>
            </g>
        </g>
    </g>
</svg>