<?xml version="1.0" encoding="UTF-8" standalone="no"?>
<svg width="114px" height="28px" viewBox="0 0 114 28" version="1.1" xmlns="http://www.w3.org/2000/svg" xmlns:xlink="http://www.w3.org/1999/xlink">
    <!-- Generator: Sketch 3.8.3 (29802) - http://www.bohemiancoding.com/sketch -->
    <title>carstar_mainlogo@svg</title>
    <desc>Created with Sketch.</desc>
    <defs></defs>
    <g id="carstar-website" stroke="none" stroke-width="1" fill="none" fill-rule="evenodd">
        <g id="Desktop-HD" transform="translate(-250.000000, -30.000000)" fill="#FFFFFF">
            <g id="carstar_mainlogo" transform="translate(250.000000, 30.000000)">
                <path d="M113.004939,17.1204639 C112.441643,17.7161199 111.756697,18.0139479 110.949723,18.0139479 C110.069078,18.0139479 109.334641,17.6468484 108.747166,16.9114755 C108.404504,17.1145934 108.141935,17.3807209 107.958704,17.709858 C107.774716,18.0397779 107.621709,18.38183 107.49968,18.7364058 C107.474746,18.7876745 107.444522,18.8886464 107.408253,19.0404956 C107.371229,19.1927362 107.352717,19.2944909 107.352717,19.3449768 L107.352717,26.7965473 L103.168993,26.7965473 L103.168993,12.3493454 L107.352717,12.3493454 L107.352717,14.4400119 C107.743737,13.7817376 108.252252,13.2177821 108.875995,12.7485367 C109.500116,12.2796826 110.191106,12.0448642 110.949723,12.0448642 C111.756697,12.0448642 112.441643,12.3368217 113.004939,12.9195627 C113.567101,13.5030865 113.84856,14.1997144 113.84856,15.0106206 C113.84856,15.8223095 113.567101,16.5251992 113.004939,17.1204639" id="Fill-12"></path>
                <path d="M21.8000233,4.86661129 C20.9681142,3.11760559 19.7754089,1.86993717 18.2215296,1.12204058 C16.6676503,0.37414398 14.9856979,0 13.1756722,0 C11.2424847,0 9.46872752,0.37414398 7.85402292,1.12204058 C6.23931832,1.86993717 4.85015856,2.88944038 3.68843262,4.18250703 C2.52595109,5.4751823 1.62037156,6.98976097 0.972449612,8.72546029 C0.323772074,10.4619423 0,12.3060495 0,14.256999 C0,16.4118492 0.336239376,18.3252278 1.00947372,19.9979175 C1.68195248,21.6709986 2.62380053,23.0842139 3.83501788,24.2371723 C5.04623523,25.390522 6.48979776,26.2652205 8.16570548,26.8600938 C9.84161321,27.4557498 11.682996,27.7535778 13.6890984,27.7535778 C15.0839251,27.7535778 16.3986588,27.5637662 17.6348108,27.1833604 C18.8698294,26.803346 20.0383556,26.1701191 21.1396341,25.2825055 L21.1396341,19.73179 C20.8211511,20.264045 20.3625055,20.7524673 19.7629416,21.1958827 C19.1633777,21.6392981 18.5154557,22.0193125 17.8180424,22.3363173 C17.120629,22.6533222 16.4050814,22.9002729 15.6710217,23.0775608 C14.9369621,23.2548486 14.2765728,23.3436883 13.6890984,23.3436883 C12.3433853,23.3436883 11.1140337,23.1538767 10.0010436,22.7734709 C8.88692006,22.3930651 7.92731554,21.8357628 7.11996324,21.1003898 C6.31261094,20.3657996 5.68849021,19.446877 5.24797885,18.3444046 C4.80746749,17.2415408 4.58721181,15.9680424 4.58721181,14.5235179 C4.58721181,13.2562813 4.78933323,12.0203538 5.19319828,10.8165181 C5.59668553,9.61307383 6.17131485,8.53525739 6.91784182,7.58502561 C7.663991,6.63479382 8.56919274,5.87398222 9.63382483,5.30376487 C10.6980791,4.73354753 11.8783171,4.44863454 13.1756722,4.44863454 C13.7132774,4.44863454 14.2701503,4.52455916 14.8455352,4.67679975 C15.4197867,4.82864898 15.9400132,5.05642283 16.4050814,5.36090402 C16.869394,5.66499384 17.2551248,6.05831466 17.5611404,6.53930101 C17.8667782,7.02146145 18.019786,7.5916788 18.019786,8.2503444 C18.019786,8.78259944 17.915514,9.26436851 17.7081034,9.69486891 C17.5365836,10.0494447 17.3178391,10.3676236 17.0560257,10.652928 L20.8268181,13.287199 C21.2677073,12.7338103 21.6443709,12.1224998 21.9469864,11.4438746 C22.3874977,10.4552892 22.6077534,9.39117045 22.6077534,8.2503444 C22.6077534,7.05942376 22.3380063,5.93112136 21.8000233,4.86661129" id="Fill-14"></path>
                <path d="M99.1203795,27.0630402 C98.5570841,27.2019744 97.9945443,27.2720285 97.4320045,27.2720285 C96.6246522,27.2720285 95.9091046,27.0309483 95.2849838,26.5495706 C94.6612409,26.0685843 94.1780385,25.4470982 93.8353765,24.6870693 C93.2970157,25.5742915 92.6241592,26.2263039 91.8171847,26.6450634 C91.0094546,27.0630402 90.1038751,27.2720285 89.1008239,27.2720285 C88.0732159,27.2720285 87.1430796,27.0689106 86.3115482,26.6634575 C85.4796391,26.2583958 84.7701363,25.7136171 84.1834174,25.0291215 C83.595943,24.3446258 83.1429644,23.5462433 82.825237,22.6339738 C82.5071319,21.7217043 82.3480794,20.7460339 82.3480794,19.7065711 C82.3480794,18.6929384 82.5071319,17.7294002 82.825237,16.8167394 C83.1429644,15.9044699 83.595943,15.1060874 84.1834174,14.4215917 C84.7701363,13.7374875 85.4796391,13.1931001 86.3115482,12.7868643 C87.1430796,12.3818026 88.0732159,12.1786847 89.1008239,12.1786847 C89.9572898,12.1786847 90.7525526,12.3371871 91.4866123,12.6541919 C92.2206719,12.9711968 92.8685939,13.4713599 93.4315115,14.1554642 L93.4315115,12.4827745 L97.6156138,12.4827745 L97.6156138,22.0637565 C97.6156138,22.4946482 97.7557765,22.8304385 98.0376131,23.0711274 C98.3186942,23.3122076 98.667023,23.4323564 99.0837332,23.4323564 C99.6458952,23.4323564 100.160077,23.2296298 100.625145,22.8237854 L100.625145,26.3214054 C100.184634,26.6771553 99.6829193,26.9237146 99.1203795,27.0630402 Z M93.0356552,18.355869 C92.7662859,17.6208874 92.3321971,17.0252314 91.7330109,16.5692924 C91.1330692,16.1129619 90.4541679,15.8847967 89.6959292,15.8847967 C89.182503,15.8847967 88.7049676,15.9928132 88.264834,16.2080634 C87.8243226,16.423705 87.4446366,16.7152711 87.1269093,17.0823706 C86.8088042,17.4502527 86.5579469,17.8682295 86.3747154,18.3366922 C86.191106,18.8059376 86.0996791,19.3064921 86.0996791,19.8387472 C86.0996791,20.3706109 86.191106,20.8715568 86.3747154,21.3404108 C86.5579469,21.8096563 86.8088042,22.2280244 87.1269093,22.5947324 C87.4446366,22.9626146 87.8243226,23.2545721 88.264834,23.4690396 C88.7049676,23.6850725 89.182503,23.7926976 89.6959292,23.7926976 C90.4541679,23.7926976 91.1330692,23.5645324 91.7330109,23.108202 C92.3321971,22.652263 92.7662859,22.0566069 93.0356552,21.321234 L93.0356552,18.355869 Z" id="Combined-Shape"></path>
                <path d="M36.4067303,18.0898725 C36.137361,17.3548909 35.7032722,16.7592349 35.1040861,16.3032958 C34.5041444,15.8469654 33.8252431,15.6188002 33.0670044,15.6188002 C32.5535782,15.6188002 32.0760427,15.7268167 31.6359091,15.9420669 C31.1953978,16.1577084 30.8157117,16.4492746 30.4979844,16.816374 C30.1798793,17.1842562 29.9290221,17.6022329 29.7457905,18.0706957 C29.5621811,18.5399411 29.4707542,19.0404956 29.4707542,19.5727507 C29.4707542,20.1046143 29.5621811,20.6055603 29.7457905,21.0744143 C29.9290221,21.5436598 30.1798793,21.9620279 30.4979844,22.3287359 C30.8157117,22.6966181 31.1953978,22.9885756 31.6359091,23.2030431 C32.0760427,23.419076 32.5535782,23.5267011 33.0670044,23.5267011 C33.8252431,23.5267011 34.5041444,23.2985359 35.1040861,22.8422055 C35.7032722,22.3862664 36.137361,21.7906104 36.4067303,21.0552375 L36.4067303,18.0898725 Z M42.0955983,26.9292197 C41.5323029,27.0681539 40.9697631,27.1382081 40.4072233,27.1382081 C39.599871,27.1382081 38.8843234,26.8971279 38.2602026,26.4157501 C37.6364597,25.9347638 37.1532573,25.3132778 36.8105954,24.5532489 C36.2722346,25.4404711 35.599378,26.0924835 34.7924035,26.511243 C33.9846734,26.9292197 33.0790939,27.1382081 32.0760427,27.1382081 C31.0484347,27.1382081 30.1182984,26.9350902 29.2867671,26.5296371 C28.454858,26.1245753 27.7453551,25.5797966 27.1586363,24.895301 C26.5711619,24.2108054 26.1181832,23.4124228 25.8004559,22.5001534 C25.4823507,21.5878839 25.3232982,20.6122134 25.3232982,19.5727507 C25.3232982,18.5591179 25.4823507,17.5955798 25.8004559,16.6829189 C26.1181832,15.7706494 26.5711619,14.9722669 27.1586363,14.2877713 C27.7453551,13.603667 28.454858,13.0592797 29.2867671,12.6530439 C30.1182984,12.2479821 31.0484347,12.0448642 32.0760427,12.0448642 C32.9325086,12.0448642 33.7277714,12.2033666 34.4618311,12.5203715 C35.1958908,12.8373763 35.8438127,13.3375395 36.4067303,14.0216437 L36.4067303,12.348954 L40.5908327,12.348954 L40.5908327,21.929936 C40.5908327,22.3608278 40.7309954,22.6966181 41.012832,22.9373069 C41.293913,23.1783872 41.6422419,23.2985359 42.058952,23.2985359 C42.621114,23.2985359 43.1352958,23.0958094 43.600364,22.6899649 L43.600364,26.1875849 C43.1598526,26.5433348 42.6581381,26.7898941 42.0955983,26.9292197 L42.0955983,26.9292197 Z" id="Fill-1"></path>
                <path d="M56.7309429,17.1204639 C56.1676475,17.7161199 55.4827014,18.0139479 54.6757269,18.0139479 C53.795082,18.0139479 53.0606445,17.6468484 52.4731701,16.9114755 C52.1305082,17.1145934 51.8679392,17.3807209 51.6847077,17.709858 C51.5007205,18.0397779 51.3477127,18.38183 51.2256843,18.7364058 C51.2007497,18.7876745 51.1705259,18.8886464 51.1342574,19.0404956 C51.0972333,19.1927362 51.0787212,19.2944909 51.0787212,19.3449768 L51.0787212,26.7965473 L46.8949966,26.7965473 L46.8949966,12.3493454 L51.0787212,12.3493454 L51.0787212,14.4400119 C51.4697412,13.7817376 51.978256,13.2177821 52.6019989,12.7485367 C53.2261196,12.2796826 53.9171105,12.0448642 54.6757269,12.0448642 C55.4827014,12.0448642 56.1676475,12.3368217 56.7309429,12.9195627 C57.2931049,13.5030865 57.5745637,14.1997144 57.5745637,15.0106206 C57.5745637,15.8223095 57.2931049,16.5251992 56.7309429,17.1204639" id="Fill-3"></path>
                <path d="M66.207659,24.4769329 C66.0115824,25.035018 65.7305013,25.5163957 65.3636604,25.9214574 C64.9964417,26.3276932 64.5563081,26.6509599 64.0425041,26.8912574 C63.5283223,27.1319463 62.9654047,27.2524864 62.3541291,27.2524864 C61.8157683,27.2524864 61.2532285,27.2020004 60.6657541,27.1022026 C60.0786574,27.0012307 59.5523862,26.813376 59.0876958,26.5374643 L59.0876958,22.5381157 C59.3079515,22.7662809 59.6071667,22.9944461 59.9868528,23.2226113 C60.366161,23.4507765 60.7148677,23.5646634 61.0329728,23.5646634 C61.4239927,23.5646634 61.7424757,23.4507765 61.9872882,23.2214372 C62.2317228,22.9924893 62.3541291,22.6750931 62.3541291,22.2676831 C62.3541291,21.8864946 62.2317228,21.4927824 61.9872882,21.0857639 C61.7424757,20.6787453 61.4787733,20.2462881 61.1980701,19.7883922 C60.9166113,19.3308877 60.6532868,18.8600768 60.4088521,18.3767423 C60.1640396,17.8941905 60.0420111,17.3854173 60.0420111,16.8515968 C60.0420111,14.6137775 61.0450623,13.0115333 63.0515424,12.0448642 L65.4003067,15.0106206 C65.0334658,15.2137385 64.7395397,15.454036 64.519284,15.7326871 C64.2990283,16.012121 64.1890894,16.3792205 64.1890894,16.8355509 C64.1890894,17.1650794 64.3111178,17.5263083 64.5563081,17.9188464 C64.800365,18.3121672 65.0636895,18.7493208 65.3451484,19.2306985 C65.6262294,19.7120762 65.8895539,20.2380695 66.1343664,20.8082868 C66.3784233,21.3785041 66.5012073,22.0058606 66.5012073,22.6903563 C66.5012073,23.3239746 66.4033579,23.9196306 66.207659,24.4769329" id="Fill-5"></path>
                <path d="M78.522897,26.9065086 C78.0578289,27.0454428 77.5557366,27.115497 77.0181314,27.115497 C75.3784922,27.115497 74.1491406,26.6298143 73.3296988,25.6572747 C72.5095014,24.6847352 72.1003472,23.3775795 72.1003472,21.7358075 L72.1003472,16.432434 L68.4666951,16.432434 L68.4666951,12.3645966 L72.1003472,12.3645966 L72.1003472,5.55916809 L76.2840717,5.55916809 L76.2840717,12.3645966 L79.8440533,12.3645966 L79.8440533,16.432434 L76.2840717,16.432434 L76.2840717,21.1205833 C76.2840717,21.7001934 76.4125227,22.2113148 76.6694247,22.6519906 C76.9259489,23.0934492 77.3604155,23.3137871 77.9724467,23.3137871 C78.3143531,23.3137871 78.6449255,23.2507775 78.9630306,23.1235842 C79.2807579,22.9971737 79.5743062,22.8449331 79.8440533,22.6672538 L79.8440533,26.1648738 C79.427721,26.5206237 78.9872096,26.7675744 78.522897,26.9065086" id="Fill-8"></path>
            </g>
        </g>
    </g>
</svg>