<?xml version="1.0" encoding="UTF-8" standalone="no"?>
<svg width="134px" height="80px" viewBox="0 0 134 80" version="1.1" xmlns="http://www.w3.org/2000/svg" xmlns:xlink="http://www.w3.org/1999/xlink">
    <!-- Generator: Sketch 3.8.3 (29802) - http://www.bohemiancoding.com/sketch -->
    <title>dialog</title>
    <desc>Created with Sketch.</desc>
    <defs></defs>
    <g id="carstar-website" stroke="none" stroke-width="1" fill="none" fill-rule="evenodd">
        <g id="Desktop-HD" transform="translate(-653.000000, -804.000000)">
            <g id="dialog" transform="translate(653.000000, 804.000000)">
                <g id="Group">
                    <path d="M74.9528763,39.5657169 L74.9528763,10.315814 C74.9528763,4.6277525 70.3251238,0 64.6370623,0 L10.315814,0 C4.6277525,0 0,4.6277525 0,10.315814 L0,39.5657169 C0,45.2537784 4.6277525,49.8815309 10.315814,49.8815309 L39.6962968,49.8815309 L39.6962968,58.3692259 C39.6962968,59.1613238 40.1734359,59.8758571 40.9054669,60.1788025 C41.1478233,60.2790879 41.402193,60.3279248 41.6547345,60.3279248 C42.1645186,60.3279248 42.6654231,60.128921 43.0401875,59.7541566 L52.9125521,49.8815309 L64.6370623,49.8815309 C70.3251238,49.8815309 74.9528763,45.2537784 74.9528763,39.5657169 L74.9528763,39.5657169 Z M52.1013896,45.9641332 C51.5819427,45.9641332 51.0836497,46.1704495 50.7164589,46.5379014 L43.6136945,53.6406657 L43.6136945,47.922832 C43.6136945,46.8411079 42.7367198,45.9641332 41.6549957,45.9641332 L10.315814,45.9641332 C6.7878056,45.9641332 3.91739771,43.0937253 3.91739771,39.5657169 L3.91739771,10.315814 C3.91739771,6.7878056 6.7878056,3.91739771 10.315814,3.91739771 L64.6370623,3.91739771 C68.1650707,3.91739771 71.0354785,6.7878056 71.0354785,10.315814 L71.0354785,39.5657169 C71.0354785,43.0937253 68.1650707,45.9641332 64.6370623,45.9641332 L52.1013896,45.9641332 L52.1013896,45.9641332 Z" id="Shape" fill="#C2323C"></path>
                    <path d="M12.4050928,14.3637916 L18.6729291,14.3637916 C19.7546532,14.3637916 20.631628,13.4868168 20.631628,12.4050928 C20.631628,11.3233687 19.7546532,10.4463939 18.6729291,10.4463939 L12.4050928,10.4463939 C11.3233687,10.4463939 10.4463939,11.3233687 10.4463939,12.4050928 C10.4463939,13.4868168 11.3233687,14.3637916 12.4050928,14.3637916 L12.4050928,14.3637916 Z" id="Shape" fill="#C2323C"></path>
                    <path d="M62.5477835,10.4463939 L27.0300442,10.4463939 C25.9483201,10.4463939 25.0713454,11.3233687 25.0713454,12.4050928 C25.0713454,13.4868168 25.9483201,14.3637916 27.0300442,14.3637916 L62.5477835,14.3637916 C63.6295076,14.3637916 64.5064824,13.4868168 64.5064824,12.4050928 C64.5064824,11.3233687 63.6295076,10.4463939 62.5477835,10.4463939 L62.5477835,10.4463939 Z" id="Shape" fill="#C2323C"></path>
                    <path d="M62.5477835,18.803509 L12.4050928,18.803509 C11.3233687,18.803509 10.4463939,19.6804838 10.4463939,20.7622079 C10.4463939,21.843932 11.3233687,22.7209067 12.4050928,22.7209067 L62.5477835,22.7209067 C63.6295076,22.7209067 64.5064824,21.843932 64.5064824,20.7622079 C64.5064824,19.6804838 63.6295076,18.803509 62.5477835,18.803509 L62.5477835,18.803509 Z" id="Shape" fill="#C2323C"></path>
                    <path d="M62.5477835,27.1606242 L56.2799472,27.1606242 C55.1982231,27.1606242 54.3212483,28.0375989 54.3212483,29.119323 C54.3212483,30.2010471 55.1982231,31.0780219 56.2799472,31.0780219 L62.5477835,31.0780219 C63.6295076,31.0780219 64.5064824,30.2010471 64.5064824,29.119323 C64.5064824,28.0375989 63.6295076,27.1606242 62.5477835,27.1606242 L62.5477835,27.1606242 Z" id="Shape" fill="#C2323C"></path>
                    <path d="M12.4050928,31.0780219 L47.922832,31.0780219 C49.0045561,31.0780219 49.8815309,30.2010471 49.8815309,29.119323 C49.8815309,28.0375989 49.0045561,27.1606242 47.922832,27.1606242 L12.4050928,27.1606242 C11.3233687,27.1606242 10.4463939,28.0375989 10.4463939,29.119323 C10.4463939,30.2010471 11.3233687,31.0780219 12.4050928,31.0780219 L12.4050928,31.0780219 Z" id="Shape" fill="#C2323C"></path>
                    <path d="M62.5477835,35.5177393 L12.4050928,35.5177393 C11.3233687,35.5177393 10.4463939,36.394714 10.4463939,37.4764381 C10.4463939,38.5581622 11.3233687,39.435137 12.4050928,39.435137 L62.5477835,39.435137 C63.6295076,39.435137 64.5064824,38.5581622 64.5064824,37.4764381 C64.5064824,36.394714 63.6295076,35.5177393 62.5477835,35.5177393 L62.5477835,35.5177393 Z" id="Shape" fill="#C2323C"></path>
                    <path d="M81.3512925,33.1673006 L87.6191289,33.1673006 C88.700853,33.1673006 89.5778277,32.2903259 89.5778277,31.2086018 C89.5778277,30.1268777 88.700853,29.2499029 87.6191289,29.2499029 L81.3512925,29.2499029 C80.2695684,29.2499029 79.3925937,30.1268777 79.3925937,31.2086018 C79.3925937,32.2903259 80.2695684,33.1673006 81.3512925,33.1673006 L81.3512925,33.1673006 Z" id="Shape" fill="#27212A"></path>
                    <path d="M121.047589,33.1673006 C122.129313,33.1673006 123.006288,32.2903259 123.006288,31.2086018 C123.006288,30.1268777 122.129313,29.2499029 121.047589,29.2499029 L95.976244,29.2499029 C94.8945199,29.2499029 94.0175451,30.1268777 94.0175451,31.2086018 C94.0175451,32.2903259 94.8945199,33.1673006 95.976244,33.1673006 L121.047589,33.1673006 L121.047589,33.1673006 Z" id="Shape" fill="#27212A"></path>
                    <path d="M81.3512925,41.5244158 L121.047589,41.5244158 C122.129313,41.5244158 123.006288,40.647441 123.006288,39.5657169 C123.006288,38.4839928 122.129313,37.6070181 121.047589,37.6070181 L81.3512925,37.6070181 C80.2695684,37.6070181 79.3925937,38.4839928 79.3925937,39.5657169 C79.3925937,40.647441 80.2695684,41.5244158 81.3512925,41.5244158 L81.3512925,41.5244158 Z" id="Shape" fill="#27212A"></path>
                    <path d="M121.047589,45.9641332 L114.779753,45.9641332 C113.698029,45.9641332 112.821054,46.8411079 112.821054,47.922832 C112.821054,49.0045561 113.698029,49.8815309 114.779753,49.8815309 L121.047589,49.8815309 C122.129313,49.8815309 123.006288,49.0045561 123.006288,47.922832 C123.006288,46.8411079 122.129313,45.9641332 121.047589,45.9641332 L121.047589,45.9641332 Z" id="Shape" fill="#27212A"></path>
                    <path d="M81.3512925,49.8815309 L106.422638,49.8815309 C107.504362,49.8815309 108.381337,49.0045561 108.381337,47.922832 C108.381337,46.8411079 107.504362,45.9641332 106.422638,45.9641332 L81.3512925,45.9641332 C80.2695684,45.9641332 79.3925937,46.8411079 79.3925937,47.922832 C79.3925937,49.0045561 80.2695684,49.8815309 81.3512925,49.8815309 L81.3512925,49.8815309 Z" id="Shape" fill="#27212A"></path>
                    <path d="M121.047589,54.3212483 L68.8156198,54.3212483 C67.7338958,54.3212483 66.856921,55.1982231 66.856921,56.2799472 C66.856921,57.3616712 67.7338958,58.238646 68.8156198,58.238646 L121.047589,58.238646 C122.129313,58.238646 123.006288,57.3616712 123.006288,56.2799472 C123.006288,55.1982231 122.129313,54.3212483 121.047589,54.3212483 L121.047589,54.3212483 Z" id="Shape" fill="#27212A"></path>
                    <path d="M123.136868,18.803509 L81.3512925,18.803509 C80.2695684,18.803509 79.3925937,19.6804838 79.3925937,20.7622079 C79.3925937,21.843932 80.2695684,22.7209067 81.3512925,22.7209067 L123.136868,22.7209067 C126.664877,22.7209067 129.535284,25.5913146 129.535284,29.119323 L129.535284,58.3692259 C129.535284,61.8972343 126.664877,64.7676422 123.136868,64.7676422 L91.7976864,64.7676422 C90.7159623,64.7676422 89.8389876,65.644617 89.8389876,66.7263411 L89.8389876,72.4441748 L82.7362232,65.3414104 C82.3690325,64.9739585 81.8707395,64.7676422 81.3512925,64.7676422 L68.8156198,64.7676422 C65.2876115,64.7676422 62.4172036,61.8972343 62.4172036,58.3692259 L62.4172036,56.2799472 C62.4172036,55.1982231 61.5402288,54.3212483 60.4585047,54.3212483 C59.3767806,54.3212483 58.4998059,55.1982231 58.4998059,56.2799472 L58.4998059,58.3692259 C58.4998059,64.0572874 63.1275584,68.6850399 68.8156198,68.6850399 L80.54013,68.6850399 L90.4127558,78.5576656 C90.7875201,78.93243 91.2884247,79.1314338 91.7982088,79.1314338 C92.0504892,79.1314338 92.30512,79.0825969 92.5474764,78.9823116 C93.2795074,78.679105 93.7566464,77.9648328 93.7566464,77.172735 L93.7566464,68.6850399 L123.137129,68.6850399 C128.825191,68.6850399 133.452943,64.0572874 133.452943,58.3692259 L133.452943,29.119323 C133.452682,23.4312615 128.82493,18.803509 123.136868,18.803509 L123.136868,18.803509 Z" id="Shape" fill="#27212A"></path>
                </g>
            </g>
        </g>
    </g>
</svg>