<?xml version="1.0" encoding="UTF-8" standalone="no"?>
<svg width="26px" height="26px" viewBox="0 0 26 26" version="1.1" xmlns="http://www.w3.org/2000/svg" xmlns:xlink="http://www.w3.org/1999/xlink">
    <!-- Generator: Sketch 3.8.3 (29802) - http://www.bohemiancoding.com/sketch -->
    <title>Facebook</title>
    <desc>Created with Sketch.</desc>
    <defs></defs>
    <g id="carstar-website" stroke="none" stroke-width="1" fill="none" fill-rule="evenodd">
        <g id="Desktop-HD" transform="translate(-1105.000000, -30.000000)" fill="#FFFFFF">
            <g id="Social-icon" transform="translate(1034.000000, 30.000000)">
                <path d="M84.8874424,26 L72.4350004,26 C71.6422394,26 71,25.3573621 71,24.5649098 L71,1.43498927 C71,0.642335257 71.6423402,1.24344979e-14 72.4350004,1.24344979e-14 L95.5651005,1.24344979e-14 C96.3575589,1.24344979e-14 97,0.642335257 97,1.43498927 L97,24.5649098 C97,25.357463 96.357458,26 95.5651005,26 L88.9396237,26 L88.9396237,15.9313671 L92.319199,15.9313671 L92.8252424,12.0074422 L88.9396237,12.0074422 L88.9396237,9.50226409 C88.9396237,8.36619729 89.2550938,7.59200525 90.8841986,7.59200525 L92.9620436,7.59109728 L92.9620436,4.08150738 C92.6026882,4.03368785 91.3692578,3.92685056 89.9342573,3.92685056 C86.9384519,3.92685056 84.8874424,5.75549339 84.8874424,9.11365479 L84.8874424,12.0074422 L81.499191,12.0074422 L81.499191,15.9313671 L84.8874424,15.9313671 L84.8874424,26 L84.8874424,26 Z" id="Facebook"></path>
            </g>
        </g>
    </g>
</svg>