<?xml version="1.0" encoding="UTF-8" standalone="no"?>
<svg width="84px" height="84px" viewBox="0 0 84 84" version="1.1" xmlns="http://www.w3.org/2000/svg" xmlns:xlink="http://www.w3.org/1999/xlink">
    <!-- Generator: Sketch 3.8.3 (29802) - http://www.bohemiancoding.com/sketch -->
    <title>Group 6</title>
    <desc>Created with Sketch.</desc>
    <defs></defs>
    <g id="carstar-website" stroke="none" stroke-width="1" fill="none" fill-rule="evenodd">
        <g id="Desktop-HD" transform="translate(-678.000000, -2886.000000)">
            <g id="Group-6" transform="translate(679.000000, 2887.000000)">
                <path d="M42.023972,56 L27.6557697,56 C26.7410454,56 26,55.2584947 26,54.3441267 L26,27.6557569 C26,26.7411561 26.7411618,26 27.6557697,26 L54.3443467,26 C55.2587218,26 56,26.7411561 56,27.6557569 L56,54.3441267 C56,55.2586111 55.2586054,56 54.3443467,56 L46.6995658,56 L46.6995658,44.3823467 L50.5990757,44.3823467 L51.182972,39.854741 L46.6995658,39.854741 L46.6995658,36.9641509 C46.6995658,35.6533046 47.0635697,34.7600061 48.943306,34.7600061 L51.3408196,34.7589584 L51.3408196,30.7094316 C50.9261787,30.6542552 49.5029897,30.5309814 47.84722,30.5309814 C44.3905214,30.5309814 42.023972,32.6409539 42.023972,36.5157555 L42.023972,39.854741 L38.1144511,39.854741 L38.1144511,44.3823467 L42.023972,44.3823467 L42.023972,56 L42.023972,56 Z" id="Facebook" fill="#FFFFFF"></path>
                <circle id="Oval-12-Copy" stroke="#FFFFFF" stroke-width="2" cx="41" cy="41" r="41"></circle>
            </g>
        </g>
    </g>
</svg>