<?xml version="1.0" encoding="UTF-8" standalone="no"?>
<svg width="90px" height="80px" viewBox="0 0 90 80" version="1.1" xmlns="http://www.w3.org/2000/svg" xmlns:xlink="http://www.w3.org/1999/xlink">
    <!-- Generator: Sketch 3.8.3 (29802) - http://www.bohemiancoding.com/sketch -->
    <title>photo-camera</title>
    <desc>Created with Sketch.</desc>
    <defs></defs>
    <g id="carstar-website" stroke="none" stroke-width="1" fill="none" fill-rule="evenodd">
        <g id="Desktop-HD" transform="translate(-353.000000, -804.000000)">
            <g id="photo-camera" transform="translate(353.000000, 804.000000)">
                <g id="Group">
                    <path d="M81.7497893,9.08997745 L81.7497893,4.67377935 C81.7497893,3.88113332 81.1095411,3.23851975 80.3193868,3.23851975 L65.1416724,3.23851975 C64.3515181,3.23851975 63.7112699,3.88113332 63.7112699,4.67377935 L63.7112699,8.97955814 L62.1689146,8.97955814 L59.0929772,3.42414666 C58.0848295,1.60308929 55.6685937,0.176632614 53.5924122,0.176632614 L36.046142,0.176632614 C33.9699605,0.176632614 31.5537247,1.60308929 30.5453863,3.42414666 L27.4696396,8.97955814 L9.31916739,8.97955814 C4.18058959,8.97955814 0,13.1745349 0,18.3305615 L0,70.0814297 C0,75.2374563 4.18058959,79.432433 9.31916739,79.432433 L80.3191961,79.432433 C85.4577739,79.432433 89.6383635,75.2376476 89.6383635,70.0814297 L89.6383635,18.3305615 C89.6385542,13.6625232 86.2116914,9.78253804 81.7497893,9.08997745 L81.7497893,9.08997745 Z M66.5720749,6.10903895 L78.8889844,6.10903895 L78.8889844,8.97955814 L66.5720749,8.97955814 L66.5720749,6.10903895 L66.5720749,6.10903895 Z M86.7777493,70.0814297 C86.7777493,73.654652 83.8805168,76.5619138 80.3193868,76.5619138 L9.31916739,76.5619138 C5.75803743,76.5619138 2.86080492,73.654652 2.86080492,70.0814297 L2.86080492,18.3305615 C2.86080492,14.7573392 5.75803743,11.8500773 9.31916739,11.8500773 L28.3112884,11.8500773 C28.8308106,11.8500773 29.3093279,11.5674269 29.5618416,11.1117798 L33.046302,4.81826215 C33.5595304,3.89127582 34.9893607,3.04715181 36.046142,3.04715181 L53.5924122,3.04715181 C54.6491935,3.04715181 56.0790238,3.89127582 56.5922522,4.81807078 L60.0769034,11.1117798 C60.3292264,11.5674269 60.8079344,11.8500773 61.3274565,11.8500773 L80.3195775,11.8500773 C83.8807075,11.8500773 86.77794,14.7571478 86.77794,18.3305615 L86.77794,70.0814297 L86.7777493,70.0814297 Z" id="Shape" fill="#27212A"></path>
                    <path d="M34.1618252,11.6696174 C34.3819164,11.7922842 34.6201261,11.8504601 34.8552843,11.8504601 C35.3580231,11.8504601 35.8455042,11.5840759 36.1069818,11.1119712 L37.3933904,8.78819019 L52.2449731,8.78819019 L53.5313817,11.1117798 C53.9153017,11.8049145 54.7865122,12.0542669 55.4765383,11.669426 C56.1669459,11.2843937 56.4158359,10.4106076 56.0322974,9.71785568 L54.3369844,6.65596854 C54.0846614,6.20032146 53.6059533,5.917671 53.0864312,5.917671 L36.5515509,5.917671 C36.0320287,5.917671 35.5535114,6.20032146 35.3009977,6.65596854 L33.6056847,9.71785568 C33.2225276,10.410799 33.4714176,11.2847764 34.1618252,11.6696174 L34.1618252,11.6696174 Z" id="Shape" fill="#27212A"></path>
                    <path d="M80.3193868,14.7205965 L72.9505255,14.7205965 C71.0004102,14.7205965 69.352968,16.3738242 69.352968,18.3305615 L69.352968,23.5495481 C69.352968,25.5062853 71.0006009,27.159513 72.9505255,27.159513 L80.3193868,27.159513 C82.2695022,27.159513 83.9169444,25.5062853 83.9169444,23.5495481 L83.9169444,18.3305615 C83.9169444,16.3738242 82.2693115,14.7205965 80.3193868,14.7205965 L80.3193868,14.7205965 Z M81.0561395,23.5497395 C81.0561395,23.9366855 80.7048326,24.2891852 80.3193868,24.2891852 L72.9505255,24.2891852 C72.5650797,24.2891852 72.2137729,23.9366855 72.2137729,23.5497395 L72.2137729,18.3307528 C72.2137729,17.9438068 72.5650797,17.5913071 72.9505255,17.5913071 L80.3193868,17.5913071 C80.7048326,17.5913071 81.0561395,17.9438068 81.0561395,18.3307528 L81.0561395,23.5497395 L81.0561395,23.5497395 Z" id="Shape" fill="#27212A"></path>
                    <path d="M18.3410018,49.1249173 L22.2446655,49.1249173 C25.2528972,58.7627811 34.2350618,65.7756509 44.8192771,65.7756509 C57.8595888,65.7756509 68.4685978,55.1306175 68.4685978,42.0460256 C68.4685978,28.9614336 57.8595888,18.3164002 44.8192771,18.3164002 C33.6154114,18.3164002 24.2064148,26.1743508 21.7783543,36.6860008 L18.3410018,36.6860008 C14.9231028,36.6860008 12.1425911,39.4761454 12.1425911,42.905459 C12.1425911,46.3347726 14.9231028,49.1249173 18.3410018,49.1249173 L18.3410018,49.1249173 Z M44.8192771,21.1869194 C56.282141,21.1869194 65.6077929,30.5442379 65.6077929,42.0460256 C65.6077929,53.5478132 56.282141,62.9051317 44.8192771,62.9051317 C33.3564132,62.9051317 24.0307613,53.5478132 24.0307613,42.0460256 C24.0307613,30.5442379 33.3564132,21.1869194 44.8192771,21.1869194 L44.8192771,21.1869194 Z M18.3410018,39.55652 L21.299837,39.55652 C21.2143943,40.3750007 21.1699564,41.2053462 21.1699564,42.0460256 C21.1699564,43.4818593 21.2979298,44.8882223 21.5424332,46.2543981 L18.3410018,46.2543981 C16.5007413,46.2543981 15.0033961,44.7519683 15.0033961,42.905459 C15.0033961,41.0589497 16.5007413,39.55652 18.3410018,39.55652 L18.3410018,39.55652 Z" id="Shape" fill="#C2323C"></path>
                    <path d="M16.8680687,6.10903895 L22.5896785,6.10903895 C23.3798329,6.10903895 24.020081,5.46642538 24.020081,4.67377935 C24.020081,3.88113332 23.3798329,3.23851975 22.5896785,3.23851975 L16.8680687,3.23851975 C16.0779144,3.23851975 15.4376662,3.88113332 15.4376662,4.67377935 C15.4376662,5.46642538 16.0781051,6.10903895 16.8680687,6.10903895 L16.8680687,6.10903895 Z" id="Shape" fill="#27212A"></path>
                    <path d="M30.1420128,52.3643939 C30.5961179,53.0129398 31.4883076,53.1694788 32.1346588,52.7136404 C32.7812007,52.2579933 32.9368285,51.362774 32.4827234,50.7142281 C30.6964368,48.1629106 29.7523712,45.1655145 29.7523712,42.0460256 C29.7523712,33.7098465 36.5113089,26.9279578 44.8192771,26.9279578 C53.1272453,26.9279578 59.886183,33.7098465 59.886183,42.0460256 C59.886183,50.3822047 53.1272453,57.1640933 44.8192771,57.1640933 C41.7101543,57.1640933 38.7229018,56.2166306 36.1804091,54.4244698 C35.5338672,53.9688227 34.642059,54.1251703 34.1877631,54.7737163 C33.733658,55.4224536 33.8894765,56.3174815 34.5358277,56.7731286 C37.5625593,58.9068812 41.1185399,60.0346125 44.8192771,60.0346125 C54.7046932,60.0346125 62.746988,51.965009 62.746988,42.0460256 C62.746988,32.1270422 54.7046932,24.0574386 44.8192771,24.0574386 C34.9338611,24.0574386 26.8915663,32.1270422 26.8915663,42.0460256 C26.8915663,45.7593292 28.0156719,49.3273846 30.1420128,52.3643939 L30.1420128,52.3643939 Z" id="Shape" fill="#C2323C"></path>
                    <path d="M82.4865419,68.6461701 L7.1520123,68.6461701 C6.36185799,68.6461701 5.72160984,69.2887837 5.72160984,70.0814297 C5.72160984,70.8740757 6.36185799,71.5166893 7.1520123,71.5166893 L82.4865419,71.5166893 C83.2766962,71.5166893 83.9169444,70.8740757 83.9169444,70.0814297 C83.9169444,69.2887837 83.2766962,68.6461701 82.4865419,68.6461701 L82.4865419,68.6461701 Z" id="Shape" fill="#27212A"></path>
                </g>
            </g>
        </g>
    </g>
</svg>