<?xml version="1.0" encoding="UTF-8" standalone="no"?>
<svg width="84px" height="84px" viewBox="0 0 84 84" version="1.1" xmlns="http://www.w3.org/2000/svg" xmlns:xlink="http://www.w3.org/1999/xlink">
    <!-- Generator: Sketch 3.8.3 (29802) - http://www.bohemiancoding.com/sketch -->
    <title>Group 8</title>
    <desc>Created with Sketch.</desc>
    <defs></defs>
    <g id="carstar-website" stroke="none" stroke-width="1" fill="none" fill-rule="evenodd">
        <g id="Desktop-HD" transform="translate(-828.000000, -2886.000000)">
            <g id="Group-8" transform="translate(829.000000, 2887.000000)">
                <path d="M48.2720114,49.9629611 C47.7327834,50.2290158 46.7015485,50.4604984 45.932572,50.4804149 C43.6109313,50.5446739 43.1603336,48.793335 43.1416268,47.5237505 L43.1416268,38.1845915 L48.9652526,38.1845915 L48.9652526,33.6421208 L43.1617866,33.6421208 L43.1617866,26 L38.9149803,26 C38.8450569,26 38.7230086,26.0633195 38.7057548,26.223967 C38.4572995,28.5628433 37.3995481,32.6679021 33,34.3093243 L33,38.1844036 L35.9349694,38.1844036 L35.9349694,47.986152 C35.9349694,51.3424622 38.3279865,56.1105909 44.6452537,55.9980438 C46.7767389,55.9602775 49.1439661,55.0373533 49.6666667,54.2405044 L48.2720114,49.9629611" id="Tumblr" fill="#FFFFFF"></path>
                <circle id="Oval-12-Copy-2" stroke="#FFFFFF" stroke-width="2" cx="41" cy="41" r="41"></circle>
            </g>
        </g>
    </g>
</svg>