<?xml version="1.0" encoding="UTF-8" standalone="no"?>
<svg width="15px" height="26px" viewBox="0 0 15 26" version="1.1" xmlns="http://www.w3.org/2000/svg" xmlns:xlink="http://www.w3.org/1999/xlink">
    <!-- Generator: Sketch 3.8.3 (29802) - http://www.bohemiancoding.com/sketch -->
    <title>Tumblr</title>
    <desc>Created with Sketch.</desc>
    <defs></defs>
    <g id="carstar-website" stroke="none" stroke-width="1" fill="none" fill-rule="evenodd">
        <g id="Desktop-HD" transform="translate(-1176.000000, -30.000000)" fill="#FFFFFF">
            <g id="Social-icon" transform="translate(1034.000000, 30.000000)">
                <path d="M155.235743,20.7678996 C154.768412,20.9984803 153.874675,21.1990986 153.208229,21.2163596 C151.19614,21.2720507 150.805622,19.7542236 150.78941,18.6539171 L150.78941,10.5599793 L155.836552,10.5599793 L155.836552,6.62317134 L150.806882,6.62317134 L150.806882,0 L147.126316,0 C147.065716,0 146.959941,0.0548769144 146.944987,0.194104694 C146.72966,2.2211309 145.812942,5.77884848 142,7.20141443 L142,10.5598165 L144.54364,10.5598165 L144.54364,19.0546651 C144.54364,21.9634672 146.617588,26.0958455 152.092553,25.9983046 C153.93984,25.9655739 155.991437,25.1657062 156.444444,24.4751038 L155.235743,20.7678996" id="Tumblr"></path>
            </g>
        </g>
    </g>
</svg>