<?xml version="1.0" encoding="UTF-8" standalone="no"?>
<svg width="84px" height="84px" viewBox="0 0 84 84" version="1.1" xmlns="http://www.w3.org/2000/svg" xmlns:xlink="http://www.w3.org/1999/xlink">
    <!-- Generator: Sketch 3.8.3 (29802) - http://www.bohemiancoding.com/sketch -->
    <title>Group 7</title>
    <desc>Created with Sketch.</desc>
    <defs></defs>
    <g id="carstar-website" stroke="none" stroke-width="1" fill="none" fill-rule="evenodd">
        <g id="Desktop-HD" transform="translate(-528.000000, -2886.000000)">
            <g id="Group-7" transform="translate(529.000000, 2887.000000)">
                <path d="M58.4545455,29.5514626 C57.1518193,30.1538462 55.7492036,30.5612134 54.2779138,30.7432286 C55.7804191,29.8071506 56.9333109,28.3228602 57.4764603,26.5547129 C56.0696826,27.4214518 54.5151515,28.0520043 52.8544878,28.3900325 C51.5309514,26.9187432 49.6392931,26 47.5457747,26 C43.5314636,26 40.2746482,29.3911159 40.2746482,33.5731311 C40.2746482,34.1668472 40.3370792,34.7432286 40.4619411,35.2979415 C34.4165426,34.9815818 29.0578847,31.9696641 25.4681042,27.3824485 C24.8417135,28.5048754 24.483776,29.8071506 24.483776,31.1939328 C24.483776,33.8201517 25.7677728,36.1386782 27.719781,37.4972914 C26.5294306,37.460455 25.4056732,37.1159263 24.423426,36.552546 L24.423426,36.6457205 C24.423426,40.3163597 26.9310698,43.3781148 30.2607213,44.071506 C29.6509789,44.2491874 29.0079399,44.3380282 28.3440907,44.3380282 C27.8758584,44.3380282 27.4180313,44.2925244 26.9747715,44.2036836 C27.9008308,47.2112676 30.5853623,49.4019502 33.7693416,49.460455 C31.2804271,51.4929577 28.1422305,52.7042254 24.7355808,52.7042254 C24.1487298,52.7042254 23.5681218,52.6695558 23,52.6002167 C26.2193568,54.7453954 30.044294,56 34.1501705,56 C47.5312075,56 54.8460356,44.4615385 54.8460356,34.4528711 C54.8460356,34.1235103 54.8397925,33.7941495 54.8273063,33.4712893 C56.2486513,32.4030336 57.4827034,31.0704225 58.4545455,29.5514626" id="Twitter" fill="#FFFFFF"></path>
                <circle id="Oval-12" stroke="#FFFFFF" stroke-width="2" cx="41" cy="41" r="41"></circle>
            </g>
        </g>
    </g>
</svg>