<?xml version="1.0" encoding="UTF-8" standalone="no"?>
<svg width="99px" height="78px" viewBox="0 0 99 78" version="1.1" xmlns="http://www.w3.org/2000/svg" xmlns:xlink="http://www.w3.org/1999/xlink">
    <!-- Generator: Sketch 3.8.3 (29802) - http://www.bohemiancoding.com/sketch -->
    <title>video-player</title>
    <desc>Created with Sketch.</desc>
    <defs></defs>
    <g id="carstar-website" stroke="none" stroke-width="1" fill="none" fill-rule="evenodd">
        <g id="Desktop-HD" transform="translate(-987.000000, -805.000000)">
            <g id="video-player" transform="translate(987.000000, 805.000000)">
                <g id="Capa_1" transform="translate(0.000000, 0.000000)">
                    <g id="Group" transform="translate(0.000000, 0.000000)">
                        <path d="M65.112253,37.2208169 L41.9238472,22.4645586 C41.2745718,22.0534914 40.4524374,22.026087 39.7757576,22.3949934 C39.1032938,22.7660079 38.6837945,23.4743083 38.6837945,24.2437418 L38.6837945,53.7562582 C38.6837945,54.5256917 39.1032938,55.2339921 39.7778656,55.6050066 C40.0940711,55.7778656 40.4418972,55.8642951 40.7918314,55.8642951 C41.1860343,55.8642951 41.5802372,55.7525692 41.9238472,55.5354414 L65.112253,40.7791831 C65.7193676,40.3913043 66.088274,39.7209486 66.088274,39 C66.088274,38.2790514 65.7193676,37.6086957 65.112253,37.2208169 L65.112253,37.2208169 Z M42.8998682,49.9175231 L42.8998682,28.0824769 L60.0529644,39 L42.8998682,49.9175231 L42.8998682,49.9175231 Z" id="Shape" fill="#C2323C"></path>
                        <path d="M96.622098,0.065830721 L79.6941984,0.065830721 L18.7537595,0.065830721 L1.8258598,0.065830721 C0.891439735,0.065830721 0.133069829,0.822507837 0.133069829,1.75862069 L0.133069829,20.3793103 L0.133069829,39 L0.133069829,57.6206897 L0.133069829,76.2413793 C0.133069829,77.1774922 0.891439735,77.9341693 1.8258598,77.9341693 L18.7537595,77.9341693 L79.6941984,77.9341693 L96.622098,77.9341693 C97.5565181,77.9341693 98.314888,77.1774922 98.314888,76.2413793 L98.314888,57.6206897 L98.314888,39 L98.314888,20.3793103 L98.314888,1.75862069 C98.314888,0.822507837 97.5565181,0.065830721 96.622098,0.065830721 L96.622098,0.065830721 Z M17.0609695,37.30721 L3.51864977,37.30721 L3.51864977,22.0721003 L17.0609695,22.0721003 L17.0609695,37.30721 L17.0609695,37.30721 Z M3.51864977,40.69279 L17.0609695,40.69279 L17.0609695,55.9278997 L3.51864977,55.9278997 L3.51864977,40.69279 L3.51864977,40.69279 Z M20.4465495,57.6206897 L20.4465495,39 L20.4465495,20.3793103 L20.4465495,3.45141066 L78.0014084,3.45141066 L78.0014084,20.3793103 L78.0014084,39 L78.0014084,57.6206897 L78.0014084,74.5485893 L20.4465495,74.5485893 L20.4465495,57.6206897 L20.4465495,57.6206897 Z M94.9293081,37.30721 L81.3869883,37.30721 L81.3869883,22.0721003 L94.9293081,22.0721003 L94.9293081,37.30721 L94.9293081,37.30721 Z M81.3869883,40.69279 L94.9293081,40.69279 L94.9293081,55.9278997 L81.3869883,55.9278997 L81.3869883,40.69279 L81.3869883,40.69279 Z M94.9293081,3.45141066 L94.9293081,18.6865204 L81.3869883,18.6865204 L81.3869883,3.45141066 L94.9293081,3.45141066 L94.9293081,3.45141066 Z M3.51864977,3.45141066 L17.0609695,3.45141066 L17.0609695,18.6865204 L3.51864977,18.6865204 L3.51864977,3.45141066 L3.51864977,3.45141066 Z M3.51864977,74.5485893 L3.51864977,59.3134796 L17.0609695,59.3134796 L17.0609695,74.5485893 L3.51864977,74.5485893 L3.51864977,74.5485893 Z M94.9293081,74.5485893 L81.3869883,74.5485893 L81.3869883,59.3134796 L94.9293081,59.3134796 L94.9293081,74.5485893 L94.9293081,74.5485893 Z" id="Shape" fill="#27212A"></path>
                    </g>
                </g>
            </g>
        </g>
    </g>
</svg>